<?xml version="1.0" standalone="no"?>
<!DOCTYPE svg PUBLIC "-//W3C//DTD SVG 20010904//EN"
 "http://www.w3.org/TR/2001/REC-SVG-20010904/DTD/svg10.dtd">
<svg version="1.0" xmlns="http://www.w3.org/2000/svg"
 width="379.000000pt" height="379.000000pt" viewBox="0 0 379.000000 379.000000"
 preserveAspectRatio="xMidYMid meet">
<metadata>
Created by potrace 1.11, written by Peter Selinger 2001-2013
</metadata>
<g transform="translate(0.000000,379.000000) scale(0.100000,-0.100000)"
fill="#000000" stroke="none">
<path d="M1720 3300 c-25 -5 -65 -11 -89 -15 -130 -20 -330 -96 -463 -177
-345 -209 -574 -532 -660 -931 -31 -145 -31 -417 0 -564 28 -128 72 -255 125
-358 38 -72 111 -192 126 -205 3 -3 18 -21 32 -40 50 -66 143 -158 245 -240
55 -45 174 -116 256 -154 126 -59 211 -86 383 -121 89 -19 371 -13 489 9 218
41 457 155 631 299 260 216 435 518 494 854 15 85 19 142 16 263 -4 177 -7
200 -41 328 -102 393 -370 728 -724 904 -161 80 -226 102 -425 143 -47 10
-345 13 -395 5z"/>
</g>
</svg>
